<svg width="1019" height="2745" viewBox="0 0 1019 2745" fill="none" xmlns="http://www.w3.org/2000/svg">
<path d="M1012 398L369 465.972L416.63 844.676L1012 974V398Z" stroke="#303030" stroke-width="5"/>
<path d="M275.13 3H3V755.235L380 837L275.13 3Z" stroke="#303030" stroke-width="5"/>
<path d="M1016 3H309L364.711 435L1016 363.738V3Z" fill="white" stroke="#303030" stroke-width="5"/>
<path d="M1014 1009.4L3 790L3.88413 1348.67L1014 1350V1009.4Z" stroke="#303030" stroke-width="5"/>
<path d="M1012 1790L369 1857.97L416.63 2236.68L1012 2366V1790Z" stroke="#303030" stroke-width="5"/>
<path d="M275.13 1395H3V2147.24L380 2229L275.13 1395Z" stroke="#303030" stroke-width="5"/>
<path d="M1016 1395H309L364.711 1827L1016 1755.74V1395Z" fill="white" stroke="#303030" stroke-width="5"/>
<path d="M1014 2401.4L3 2182L3.88413 2740.67L1014 2742V2401.4Z" stroke="#303030" stroke-width="5"/>
</svg>
